# xmcd
#
# Track frame offsets:
#	150
#	12855
#	24572
#	40520
#	53134
#	65452
#	77152
#	87698
#	101085
#	116290
#	128947
#	141856
#	155656
#	171603
#	185818
#	199535
#	213657
#	227155
#	241654
#	256812
#
# Disc length: 3587 seconds
#
# Revision: 1
# Processed by: cddbd v1.5.2PL0 Copyright (c) Steve Scherf et al.
# Submitted via: audiograbber 1.82.02
#
DISCID=190e0114
DTITLE=grupo pegasso - vol. 3
DYEAR=1996
DGENRE=grupo
TTITLE0=la arenita
TTITLE1=el borrachon
TTITLE2=llamada para ti
TTITLE3=llevame en tu corazon
TTITLE4=nina
TTITLE5=como una estrella
TTITLE6=corazon rebelde
TTITLE7=regresare
TTITLE8=yazmin
TTITLE9=dime por que
TTITLE10=andariego
TTITLE11=llevale
TTITLE12=tres palabras
TTITLE13=el mecatito
TTITLE14=eres
TTITLE15=ya lo decidi
TTITLE16=agua clara
TTITLE17=no te olvide
TTITLE18=mi sentencia
TTITLE19=janie
EXTD=
EXTT0=
EXTT1=
EXTT2=
EXTT3=
EXTT4=
EXTT5=
EXTT6=
EXTT7=
EXTT8=
EXTT9=
EXTT10=
EXTT11=
EXTT12=
EXTT13=
EXTT14=
EXTT15=
EXTT16=
EXTT17=
EXTT18=
EXTT19=
PLAYORDER=
